<svg width="34" height="31" viewBox="0 0 34 31" fill="none" xmlns="http://www.w3.org/2000/svg">
<path d="M25.8331 3.0308V3.90167V24.3333V25.3337L25.033 24.7332L21.6 22.1568C19.248 20.3944 16.4927 19.2654 13.5983 18.867L13.1665 18.8076V18.3717V8.67333V8.21796L13.6199 8.17551C16.2837 7.9261 18.8612 7.0989 21.1727 5.75153L25.8331 3.0308ZM25.8331 3.0308L25.0811 3.46986L21.173 5.75137L25.8331 3.0308ZM28.1665 9.33333V9.83333H28.6665C29.2574 9.83333 29.8426 9.94973 30.3885 10.1759C30.9345 10.402 31.4306 10.7335 31.8485 11.1514C32.2663 11.5692 32.5978 12.0653 32.8239 12.6113C33.0501 13.1572 33.1665 13.7424 33.1665 14.3333C33.1665 14.9243 33.0501 15.5094 32.8239 16.0554C32.5978 16.6014 32.2663 17.0975 31.8485 17.5153C31.4306 17.9332 30.9345 18.2646 30.3885 18.4908C29.8426 18.7169 29.2574 18.8333 28.6665 18.8333H28.1665V19.3333V24.3333C28.1665 26.668 25.5019 28.001 23.6333 26.6001C23.6332 26.6 23.6331 26.6 23.6331 26.6L20.1999 24.0234L20.1998 24.0233C18.3009 22.5995 16.09 21.649 13.7504 21.2504L13.1665 21.151V21.7433V26.4833V26.4834C13.1666 27.4524 12.8165 28.3887 12.1807 29.1199C11.5448 29.851 10.6661 30.3277 9.70653 30.462C8.74693 30.5963 7.77112 30.3792 6.95899 29.8507C6.14685 29.3222 5.55314 28.5179 5.28728 27.5861L5.28724 27.586L2.67057 18.426L2.64099 18.3224L2.57138 18.2402C1.68985 17.1992 1.11616 15.9329 0.914804 14.5837C0.71345 13.2345 0.892409 11.8559 1.43157 10.6028C1.97072 9.34979 2.84871 8.27195 3.96682 7.49049C5.08493 6.70903 6.39885 6.25493 7.76088 6.17923L7.76093 6.17923L12.7909 5.89923C15.331 5.75788 17.8012 5.01563 19.9985 3.73352L19.9985 3.7335L23.9048 1.45372C23.9049 1.45366 23.905 1.4536 23.9051 1.45354C23.9051 1.45353 23.9051 1.45351 23.9052 1.4535C25.7955 0.352809 28.1665 1.71471 28.1665 3.90167V9.33333ZM6.50283 20.6429L5.67591 20.451L5.90902 21.2673L7.53048 26.9449C7.53053 26.9451 7.53058 26.9453 7.53064 26.9454C7.64173 27.3362 7.89041 27.6736 8.23078 27.8954C8.57132 28.1173 8.98064 28.2085 9.38317 28.1522C9.7857 28.0958 10.1542 27.8958 10.4208 27.5889C10.6871 27.2822 10.8336 26.8895 10.8331 26.4833C10.8331 26.4831 10.8331 26.4828 10.8331 26.4826L10.8331 21.4667V20.9938L10.361 20.9674L7.76098 20.8224L7.76083 20.8224C7.33711 20.7989 6.91621 20.7389 6.50283 20.6429ZM10.8331 8.87333V8.34499L10.3056 8.37409L7.88893 8.50743L7.8889 8.50743C6.63973 8.5764 5.4618 9.11117 4.58764 10.0062C3.71347 10.9012 3.20659 12.0914 3.16706 13.3418C3.12752 14.5923 3.55821 15.8121 4.37409 16.7605C5.18997 17.709 6.33177 18.3171 7.57409 18.4648L7.58163 18.4657L7.58919 18.4664L7.87252 18.4914L7.88071 18.4921L7.88893 18.4926L10.3056 18.6259L10.8331 18.655V18.1267V8.87333ZM28.6963 12.1676L28.1665 12.1359V12.6667V16V16.5006L28.667 16.5C29.2193 16.4994 29.7504 16.2879 30.152 15.9088C30.5535 15.5297 30.7952 15.0116 30.8276 14.4603C30.8599 13.909 30.6806 13.3662 30.3261 12.9427C29.9717 12.5192 29.4689 12.2471 28.9205 12.1818L28.906 12.1801L28.8913 12.1792L28.6963 12.1676Z" fill="#D5FF40" stroke="#D5FF40"/>
</svg>
