<svg width="72" height="72" viewBox="0 0 72 72" fill="none" xmlns="http://www.w3.org/2000/svg">
<path d="M12 2.81665V11.8166H3V17.8166H12V26.8166H18V17.8166H27V11.8166H18V2.81665H12ZM33 14.8166C33 24.7578 24.9411 32.8166 15 32.8166C12.8962 32.8166 10.8767 32.4557 9 31.7924V59.8364C9 61.4819 10.3408 62.8166 11.9948 62.8166H42V44.8166C42 43.1666 43.35 41.8166 45 41.8166H63V11.8121C63 10.1591 61.6656 8.81665 60.0198 8.81665H31.9758C32.6391 10.6933 33 12.7128 33 14.8166ZM63 47.8166L48 62.8076V47.8166H63Z" fill="#FACC15"/>
</svg>
