<svg width="72" height="72" viewBox="0 0 72 72" fill="none" xmlns="http://www.w3.org/2000/svg">
<path d="M36 29.8167C42.6273 29.8167 48 24.4441 48 17.8167C48 11.1892 42.6273 5.81665 36 5.81665C29.3726 5.81665 24 11.1892 24 17.8167C24 24.4441 29.3726 29.8167 36 29.8167ZM16.5 38.8167C20.6421 38.8167 24 35.4587 24 31.3167C24 27.1745 20.6421 23.8167 16.5 23.8167C12.3579 23.8167 9 27.1745 9 31.3167C9 35.4587 12.3579 38.8167 16.5 38.8167ZM63 31.3167C63 35.4587 59.6421 38.8167 55.5 38.8167C51.3579 38.8167 48 35.4587 48 31.3167C48 27.1745 51.3579 23.8167 55.5 23.8167C59.6421 23.8167 63 27.1745 63 31.3167ZM36 32.8167C44.2842 32.8167 51 39.5325 51 47.8167V65.8167H21V47.8167C21 39.5325 27.7157 32.8167 36 32.8167ZM15 47.8163C15 45.7377 15.302 43.7295 15.8645 41.8335L15.3559 41.8778C10.0951 42.4478 6 46.9041 6 52.3164V65.8164H15V47.8163ZM66 65.8164V52.3164C66 46.7301 61.6377 42.1626 56.1354 41.8335C56.6979 43.7295 57 45.7377 57 47.8163V65.8164H66Z" fill="#FACC15"/>
</svg>
