<svg width="72" height="72" viewBox="0 0 72 72" fill="none" xmlns="http://www.w3.org/2000/svg">
<path d="M11.3492 8.29459L36 2.81665L60.6507 8.29459C62.0235 8.59963 63 9.81706 63 11.2232V41.1833C63 47.2017 59.9922 52.8218 54.9846 56.1603L36 68.8167L17.0154 56.1603C12.0078 52.8218 9 47.2017 9 41.1833V11.2232C9 9.81706 9.97659 8.59963 11.3492 8.29459ZM36 40.3167L44.8167 44.952L43.1328 35.1342L50.2659 28.1814L40.4085 26.749L36 17.8167L31.5915 26.749L21.7342 28.1814L28.8671 35.1342L27.1832 44.952L36 40.3167Z" fill="#FACC15"/>
</svg>
