<svg width="40" height="40" viewBox="0 0 40 40" fill="none" xmlns="http://www.w3.org/2000/svg">
<path d="M5 20H6.66667M20 5V6.66667M33.3333 20H35M9.33333 9.33333L10.5 10.5M30.6667 9.33333L29.5 10.5M16.1667 28.3333H23.8333M15 26.6667C13.6008 25.6173 12.5672 24.1542 12.0457 22.4847C11.5242 20.8153 11.5412 19.024 12.0943 17.3648C12.6474 15.7055 13.7085 14.2623 15.1274 13.2396C16.5463 12.217 18.251 11.6667 20 11.6667C21.749 11.6667 23.4537 12.217 24.8726 13.2396C26.2915 14.2623 27.3526 15.7055 27.9057 17.3648C28.4588 19.024 28.4758 20.8153 27.9543 22.4847C27.4328 24.1542 26.3992 25.6173 25 26.6667C24.3493 27.3108 23.8593 28.0991 23.5698 28.9677C23.2802 29.8363 23.1992 30.7609 23.3333 31.6667C23.3333 32.5507 22.9821 33.3986 22.357 34.0237C21.7319 34.6488 20.8841 35 20 35C19.1159 35 18.2681 34.6488 17.643 34.0237C17.0179 33.3986 16.6667 32.5507 16.6667 31.6667C16.8008 30.7609 16.7198 29.8363 16.4302 28.9677C16.1407 28.0991 15.6507 27.3108 15 26.6667Z" stroke="#D5FF40" stroke-width="2" stroke-linecap="round" stroke-linejoin="round"/>
</svg>
