<svg width="40" height="40" viewBox="0 0 40 40" fill="none" xmlns="http://www.w3.org/2000/svg">
<path d="M30 30C32.7614 30 35 27.7614 35 25C35 22.2386 32.7614 20 30 20C27.2386 20 25 22.2386 25 25C25 27.7614 27.2386 30 30 30Z" stroke="#D5FF40" stroke-width="2" stroke-linecap="round" stroke-linejoin="round"/>
<path d="M15.0002 18.3333C18.6821 18.3333 21.6668 15.3486 21.6668 11.6667C21.6668 7.98477 18.6821 5 15.0002 5C11.3183 5 8.3335 7.98477 8.3335 11.6667C8.3335 15.3486 11.3183 18.3333 15.0002 18.3333Z" stroke="#D5FF40" stroke-width="2" stroke-linecap="round" stroke-linejoin="round"/>
<path d="M16.6668 25H10.0002C8.23205 25 6.53636 25.7024 5.28612 26.9526C4.03588 28.2028 3.3335 29.8985 3.3335 31.6666V35M36.1668 27.3333L34.6668 26.8333M25.3335 23.1666L23.8335 22.6666M27.6668 31.1666L28.1668 29.6666M31.8335 20.3333L32.3335 18.8333M32.6668 31.1666L32.0002 29.5M28.0002 20.5L27.3335 18.8333M23.8335 27.6666L25.5002 27M34.5002 23L36.1668 22.3333" stroke="#D5FF40" stroke-width="2" stroke-linecap="round" stroke-linejoin="round"/>
</svg>
