<svg width="98" height="76" viewBox="0 0 98 76" fill="none" xmlns="http://www.w3.org/2000/svg">
<path d="M89.0728 7.34169C94.7007 13.3226 97.7228 20.0352 97.7228 30.9163C97.7228 50.0537 84.3031 67.2102 64.7779 75.6895L59.9011 68.1558C78.1217 58.2869 81.6825 45.4862 83.1061 37.4148C80.1725 38.9335 76.332 39.4673 72.5675 39.1184C62.7101 38.2034 54.9413 30.1026 54.9413 20.0352C54.9413 9.46406 63.5017 0.894531 74.0616 0.894531C79.924 0.894531 85.5295 3.57668 89.0728 7.34169ZM34.4431 7.34169C40.0711 13.3226 43.0932 20.0352 43.0932 30.9163C43.0932 50.0537 29.6734 67.2102 10.1483 75.6895L5.27155 68.1558C23.4918 58.2869 27.0529 45.4862 28.4763 37.4148C25.5427 38.9335 21.7025 39.4673 17.9378 39.1184C8.08061 38.2034 0.31189 30.1026 0.31189 20.0352C0.31189 9.46406 8.87236 0.894531 19.4323 0.894531C25.2943 0.894531 30.9001 3.57668 34.4431 7.34169Z" fill="#DCFCE7"/>
</svg>
