<svg width="39" height="40" viewBox="0 0 39 40" fill="none" xmlns="http://www.w3.org/2000/svg">
<path d="M38.0716 20C38.0716 24.9254 36.1149 29.6492 32.6321 33.132C29.1493 36.6148 24.4256 38.5714 19.5001 38.5714C14.5747 38.5714 9.85098 36.6148 6.36816 33.132C2.88534 29.6492 0.928711 24.9254 0.928711 20M38.0716 20C38.0716 15.0745 36.1149 10.3508 32.6321 6.868C29.1493 3.38519 24.4256 1.42856 19.5001 1.42856C14.5747 1.42856 9.85098 3.38519 6.36816 6.868C2.88534 10.3508 0.928711 15.0745 0.928711 20M38.0716 20H0.928711" stroke="#D5FF40" stroke-linecap="round" stroke-linejoin="round"/>
<path d="M26.6431 20C26.2923 26.7914 23.7908 33.2953 19.5003 38.5714C15.2098 33.2953 12.7083 26.7914 12.3574 20C12.7083 13.2086 15.2098 6.70471 19.5003 1.42856C23.7908 6.70471 26.2923 13.2086 26.6431 20Z" fill="#D5FF40" stroke="#D5FF40" stroke-linecap="round" stroke-linejoin="round"/>
</svg>
