<svg width="40" height="40" viewBox="0 0 40 40" fill="none" xmlns="http://www.w3.org/2000/svg">
<path d="M6.77 26.1667H7.21152L7.26616 26.6048C8.03531 32.7729 13.1828 37.5817 19.5002 37.8238V35.4883C13.9334 35.2273 9.50017 30.6314 9.50017 25V15C9.50017 9.20103 14.2012 4.50002 20.0002 4.50002C25.7992 4.50002 30.5002 9.20103 30.5002 15V26.1667H35.0002C36.565 26.1667 37.8335 24.8982 37.8335 23.3334V16.6667C37.8335 15.1019 36.565 13.8334 35.0002 13.8334H33.2303H32.7888L32.7342 13.3952C31.9448 7.0652 26.5442 2.16669 20.0002 2.16669C13.4562 2.16669 8.0555 7.0652 7.26616 13.3952L7.21152 13.8334H6.77H5.00017C3.43531 13.8334 2.16683 15.1019 2.16683 16.6667V23.3334C2.16683 24.8982 3.43531 26.1667 5.00017 26.1667H6.77ZM14.8646 24.1605L13.6264 26.1413C15.504 27.2179 17.6795 27.8334 20.0002 27.8334C22.3208 27.8334 24.4963 27.2179 26.3739 26.1413L25.1358 24.1605C23.6172 25.0136 21.8649 25.5 20.0002 25.5C18.1355 25.5 16.3832 25.0136 14.8646 24.1605Z" fill="#D5FF40" stroke="#D5FF40"/>
</svg>
