<svg width="56" height="57" viewBox="0 0 56 57" fill="none" xmlns="http://www.w3.org/2000/svg">
<path d="M13.3 6.64994C14.1387 5.91016 15.2151 5.49615 16.3333 5.48327H21C22.2377 5.48327 23.4247 5.97494 24.2998 6.85011C25.175 7.72528 25.6667 8.91226 25.6667 10.1499V12.4833H44.3333C45.571 12.4833 46.758 12.9749 47.6332 13.8501C48.5083 14.7253 49 15.9123 49 17.1499V26.4833C49.6188 26.4833 50.2123 26.7291 50.6499 27.1667C51.0875 27.6043 51.3333 28.1978 51.3333 28.8166C51.3333 29.4354 51.0875 30.0289 50.6499 30.4665C50.2123 30.9041 49.6188 31.1499 49 31.1499H39.6667C39.0478 31.1499 38.4543 30.9041 38.0167 30.4665C37.5792 30.0289 37.3333 29.4354 37.3333 28.8166C37.3333 28.1978 37.5792 27.6043 38.0167 27.1667C38.4543 26.7291 39.0478 26.4833 39.6667 26.4833V21.8166H28.4667M48.6267 53.8533L51.59 50.8899L25.6667 24.9433L5.57666 4.85327L2.59 7.8166L8.51666 13.7433C7.83573 14.3807 7.36143 15.2076 7.15498 16.1172C6.94853 17.0268 7.0194 17.9774 7.35844 18.8464C7.69748 19.7153 8.28913 20.4627 9.05706 20.9922C9.82499 21.5216 10.7339 21.8088 11.6667 21.8166V42.8166H9.33333C8.09565 42.8166 6.90867 43.3083 6.0335 44.1834C5.15833 45.0586 4.66666 46.2456 4.66666 47.4833V52.1499H32.6667V47.4833C32.6667 46.2456 32.175 45.0586 31.2998 44.1834C30.4247 43.3083 29.2377 42.8166 28 42.8166H25.6667V30.8933L48.6267 53.8533Z" fill="#15803D"/>
</svg>
