<svg width="52" height="43" viewBox="0 0 52 43" fill="none" xmlns="http://www.w3.org/2000/svg">
<path d="M33 0.81665H19C12.0472 0.81665 6.27823 5.88495 5.18604 12.5285C5.5089 12.4986 5.83599 12.4833 6.16665 12.4833C11.9656 12.4833 16.6666 17.1843 16.6666 22.9833V26.4833H35.3333V22.9833C35.3333 17.1843 40.0343 12.4833 45.8333 12.4833C46.1639 12.4833 46.4911 12.4986 46.814 12.5285C45.7218 5.88495 39.9528 0.81665 33 0.81665ZM47 17.2667C46.6229 17.1901 46.2328 17.15 45.8333 17.15C42.6117 17.15 40 19.7617 40 22.9833V33.4833H35.3333V31.15H16.6666V33.4833H12V22.9833C12 19.7617 9.3883 17.15 6.16665 17.15C5.76711 17.15 5.37695 17.1901 4.99998 17.2667C2.33737 17.8071 0.333313 20.1611 0.333313 22.9833C0.333313 24.3567 0.75735 25.4072 1.24387 26.6126C1.89858 28.2345 2.66641 30.1368 2.66613 33.4833V40.4833C2.66613 41.772 3.71079 42.8167 4.99947 42.8167H26H47.0004C48.2891 42.8167 49.3338 41.772 49.3338 40.4833V33.4833C49.3335 30.1368 50.1014 28.2345 50.7562 26.6126C51.2427 25.4072 51.6666 24.3567 51.6666 22.9833C51.6666 20.1611 49.6625 17.8071 47 17.2667Z" fill="#15803D"/>
</svg>
