<svg width="40" height="40" viewBox="0 0 40 40" fill="none" xmlns="http://www.w3.org/2000/svg">
<path d="M5.49315 34.3366L16.0998 23.73M29.4565 19.0133L26.2815 28.5383C26.2308 28.691 26.1441 28.8292 26.0286 28.9412C25.9131 29.0532 25.7723 29.1357 25.6182 29.1816L6.15482 34.9666C5.97947 35.0187 5.7932 35.0217 5.61627 34.9753C5.43934 34.9288 5.27854 34.8348 5.15136 34.7033C5.02419 34.5718 4.93551 34.408 4.89498 34.2296C4.85444 34.0512 4.86361 33.8652 4.92149 33.6916L11.2415 14.735C11.2868 14.5989 11.3608 14.4741 11.4586 14.3691C11.5564 14.2642 11.6756 14.1815 11.8082 14.1266L20.7865 10.43C20.969 10.3546 21.1698 10.3349 21.3635 10.3735C21.5571 10.4121 21.7351 10.5071 21.8748 10.6466L29.2148 17.99C29.3462 18.1213 29.4383 18.2866 29.481 18.4673C29.5237 18.6481 29.5152 18.8371 29.4565 19.0133Z" stroke="#D5FF40" stroke-width="1.5" stroke-linecap="round" stroke-linejoin="round"/>
<path d="M29.6532 18.4267L34.3666 13.7117C34.9915 13.0866 35.3425 12.2389 35.3425 11.355C35.3425 10.4711 34.9915 9.62341 34.3666 8.99832L30.8332 5.46165C30.5237 5.15198 30.1562 4.90633 29.7517 4.73873C29.3471 4.57113 28.9136 4.48486 28.4757 4.48486C28.0379 4.48486 27.6043 4.57113 27.1998 4.73873C26.7953 4.90633 26.4278 5.15198 26.1182 5.46165L21.4049 10.1767M19.6349 20.1933C19.4027 19.9612 19.127 19.7771 18.8236 19.6515C18.5203 19.526 18.1951 19.4614 17.8668 19.4614C17.5385 19.4615 17.2134 19.5263 16.9101 19.652C16.6068 19.7777 16.3312 19.9619 16.0991 20.1942C15.867 20.4264 15.6829 20.702 15.5573 21.0054C15.4317 21.3088 15.3671 21.6339 15.3672 21.9622C15.3673 22.2906 15.432 22.6157 15.5577 22.919C15.6834 23.2223 15.8677 23.4979 16.0999 23.73C16.5689 24.1988 17.2049 24.462 17.868 24.4619C18.5311 24.4617 19.167 24.1981 19.6357 23.7292C20.1045 23.2602 20.3678 22.6242 20.3676 21.9611C20.3675 21.298 20.1039 20.6621 19.6349 20.1933Z" fill="#D5FF40"/>
<path d="M29.6532 18.4267L34.3666 13.7117C34.9915 13.0866 35.3425 12.2389 35.3425 11.355C35.3425 10.4711 34.9915 9.62341 34.3666 8.99832L30.8332 5.46165C30.5237 5.15198 30.1562 4.90633 29.7517 4.73873C29.3471 4.57113 28.9136 4.48486 28.4757 4.48486C28.0379 4.48486 27.6043 4.57113 27.1998 4.73873C26.7953 4.90633 26.4278 5.15198 26.1182 5.46165L21.4049 10.1767M19.6349 20.1933C19.4027 19.9612 19.127 19.7771 18.8236 19.6515C18.5203 19.526 18.1951 19.4614 17.8668 19.4614C17.5385 19.4615 17.2134 19.5263 16.9101 19.652C16.6068 19.7777 16.3312 19.9619 16.0991 20.1942C15.867 20.4264 15.6829 20.702 15.5573 21.0054C15.4317 21.3088 15.3671 21.6339 15.3672 21.9622C15.3673 22.2906 15.432 22.6157 15.5577 22.919C15.6834 23.2223 15.8677 23.4979 16.0999 23.73C16.5689 24.1988 17.2049 24.462 17.868 24.4619C18.5311 24.4617 19.167 24.1981 19.6357 23.7292C20.1045 23.2602 20.3678 22.6242 20.3676 21.9611C20.3675 21.298 20.1039 20.6621 19.6349 20.1933Z" stroke="#D5FF40" stroke-width="1.5" stroke-linecap="round" stroke-linejoin="round"/>
</svg>
