<svg width="38" height="35" viewBox="0 0 38 35" fill="none" xmlns="http://www.w3.org/2000/svg">
<g filter="url(#filter0_dd_7354_688)">
<path d="M7.88238 0.452535C9.93753 -0.278098 12.3205 0.179052 13.9655 1.824C15.6109 3.46942 16.0678 5.85327 15.3363 7.90882L33.4108 25.9835L29.8753 29.519L11.7989 11.4451C9.74378 12.1757 7.36082 11.7185 5.71587 10.0736C4.07045 8.42817 3.6135 6.04432 4.34502 3.98877L8.07288 7.71657C9.0492 8.69287 10.6321 8.69287 11.6084 7.71657C12.5847 6.74025 12.5847 5.15733 11.6084 4.18103L7.88238 0.452535ZM25.1613 3.59177L30.4647 0.645485L32.8217 3.00252L29.8753 8.30582L26.929 8.89507L23.3935 12.4307L21.0365 10.0736L24.572 6.53805L25.1613 3.59177ZM13.3762 16.5553L16.9117 20.091L8.66215 28.3405C7.68583 29.3168 6.10292 29.3168 5.12662 28.3405C4.20773 27.4217 4.15368 25.9653 4.96445 24.9833L5.12662 24.805L13.3762 16.5553Z" fill="#D5FF40"/>
<path d="M6.06942 9.72003C4.77365 8.42426 4.28349 6.62711 4.60076 4.9516L7.71933 8.07013C8.89091 9.24168 10.7904 9.24169 11.962 8.07012C13.1335 6.89854 13.1336 4.99904 11.962 3.82748L8.84513 0.708581C10.5202 0.391949 12.3166 0.882219 13.6119 2.17756C15.1157 3.68141 15.5345 5.86061 14.8652 7.74118L14.7593 8.03891L14.9827 8.26237L32.7037 25.9835L29.8753 28.8119L12.1525 11.0915L11.9291 10.8681L11.6315 10.9739C9.75124 11.6424 7.57284 11.2234 6.06942 9.72003ZM23.3935 11.7235L21.7436 10.0736L24.9256 6.8916L25.0326 6.78456L25.0623 6.63612L25.6063 3.91656L30.3778 1.26573L32.2014 3.08938L29.5505 7.86087L26.8309 8.40478L26.6825 8.43447L26.5754 8.54152L23.3935 11.7235ZM5.48018 27.987L5.48016 27.9869C4.74798 27.2548 4.7021 26.0954 5.34287 25.3104L5.48856 25.1502L13.3762 17.2625L16.2046 20.091L8.3086 27.9869L8.66215 28.3405L8.30859 27.9869C7.52754 28.768 6.26121 28.768 5.48018 27.987Z" stroke="#D5FF40"/>
</g>
<defs>
<filter id="filter0_dd_7354_688" x="0.00732422" y="0.115463" width="37.4033" height="37.4035" filterUnits="userSpaceOnUse" color-interpolation-filters="sRGB">
<feFlood flood-opacity="0" result="BackgroundImageFix"/>
<feColorMatrix in="SourceAlpha" type="matrix" values="0 0 0 0 0 0 0 0 0 0 0 0 0 0 0 0 0 0 127 0" result="hardAlpha"/>
<feOffset dy="4"/>
<feGaussianBlur stdDeviation="2"/>
<feComposite in2="hardAlpha" operator="out"/>
<feColorMatrix type="matrix" values="0 0 0 0 0 0 0 0 0 0 0 0 0 0 0 0 0 0 0.25 0"/>
<feBlend mode="normal" in2="BackgroundImageFix" result="effect1_dropShadow_7354_688"/>
<feColorMatrix in="SourceAlpha" type="matrix" values="0 0 0 0 0 0 0 0 0 0 0 0 0 0 0 0 0 0 127 0" result="hardAlpha"/>
<feOffset dy="4"/>
<feGaussianBlur stdDeviation="2"/>
<feComposite in2="hardAlpha" operator="out"/>
<feColorMatrix type="matrix" values="0 0 0 0 0 0 0 0 0 0 0 0 0 0 0 0 0 0 0.25 0"/>
<feBlend mode="normal" in2="effect1_dropShadow_7354_688" result="effect2_dropShadow_7354_688"/>
<feBlend mode="normal" in="SourceGraphic" in2="effect2_dropShadow_7354_688" result="shape"/>
</filter>
</defs>
</svg>
