<svg width="512" height="512" viewBox="0 0 512 512" fill="none" xmlns="http://www.w3.org/2000/svg">
<g clip-path="url(#clip0_7341_790)">
<path opacity="0.995" fill-rule="evenodd" clip-rule="evenodd" d="M232.5 -0.5C247.833 -0.5 263.167 -0.5 278.5 -0.5C368.144 10.3879 435.644 54.7213 481 132.5C497.695 163.971 507.861 197.304 511.5 232.5C511.5 247.833 511.5 263.167 511.5 278.5C500.612 368.144 456.279 435.644 378.5 481C347.029 497.695 313.696 507.861 278.5 511.5C263.167 511.5 247.833 511.5 232.5 511.5C142.856 500.612 75.3562 456.279 30 378.5C13.3053 347.029 3.1386 313.696 -0.5 278.5C-0.5 263.167 -0.5 247.833 -0.5 232.5C10.3875 142.857 54.7208 75.3573 132.5 30C163.971 13.3053 197.304 3.1386 232.5 -0.5Z" fill="#013A30"/>
<path fill-rule="evenodd" clip-rule="evenodd" d="M262.5 131.5C262.5 141.167 262.5 150.833 262.5 160.5C296.167 160.5 329.833 160.5 363.5 160.5C378.057 162.724 386.724 171.057 389.5 185.5C389.5 236.5 389.5 287.5 389.5 338.5C395.167 338.5 400.833 338.5 406.5 338.5C407.458 338.953 408.292 339.619 409 340.5C409.886 349.895 409.553 359.228 408 368.5C405.002 376.164 399.502 380.997 391.5 383C348.667 383.167 305.833 383.333 263 383.5C219.109 383.659 175.275 383.159 131.5 382C123.202 378.58 118.369 372.414 117 363.5C116.333 356.167 116.333 348.833 117 341.5C117.374 340.584 117.874 339.75 118.5 339C124.157 338.501 129.824 338.334 135.5 338.5C135.5 311.167 135.5 283.833 135.5 256.5C124.828 256.667 114.161 256.5 103.5 256C103 255.5 102.5 255 102 254.5C101.333 212.833 101.333 171.167 102 129.5C102.5 129 103 128.5 103.5 128C155.5 127.333 207.5 127.333 259.5 128C260.71 129.039 261.71 130.206 262.5 131.5Z" fill="#F9F9F9"/>
<path fill-rule="evenodd" clip-rule="evenodd" d="M235.5 247.5C233.983 247.511 232.816 248.177 232 249.5C231.667 259.167 231.333 268.833 231 278.5C214.72 268.281 198.554 257.947 182.5 247.5C158.672 246.502 134.672 246.169 110.5 246.5C110.5 210.167 110.5 173.833 110.5 137.5C157.833 137.5 205.167 137.5 252.5 137.5C252.5 173.833 252.5 210.167 252.5 246.5C246.642 246.178 240.975 246.511 235.5 247.5Z" fill="#333333"/>
<path fill-rule="evenodd" clip-rule="evenodd" d="M262.5 131.5C263.494 140.652 263.827 149.985 263.5 159.5C297.004 159.168 330.338 159.502 363.5 160.5C329.833 160.5 296.167 160.5 262.5 160.5C262.5 150.833 262.5 141.167 262.5 131.5Z" fill="#5C5C5C"/>
<path fill-rule="evenodd" clip-rule="evenodd" d="M235.5 247.5C240.975 246.511 246.642 246.178 252.5 246.5C252.5 210.167 252.5 173.833 252.5 137.5C205.167 137.5 157.833 137.5 110.5 137.5C110.5 173.833 110.5 210.167 110.5 246.5C134.672 246.169 158.672 246.502 182.5 247.5C158.167 247.5 133.833 247.5 109.5 247.5C109.5 210.5 109.5 173.5 109.5 136.5C157.5 136.5 205.5 136.5 253.5 136.5C253.5 173.5 253.5 210.5 253.5 247.5C247.5 247.5 241.5 247.5 235.5 247.5Z" fill="#7E7E7E"/>
<path fill-rule="evenodd" clip-rule="evenodd" d="M156.5 163.5C158.199 163.34 159.866 163.506 161.5 164C177.407 172.201 192.907 181.034 208 190.5C208.667 191.833 208.667 193.167 208 194.5C192.907 203.966 177.407 212.799 161.5 221C158.975 221.896 156.808 221.396 155 219.5C154.333 201.5 154.333 183.5 155 165.5C155.717 164.956 156.217 164.289 156.5 163.5Z" fill="#F7F7F7"/>
<path fill-rule="evenodd" clip-rule="evenodd" d="M377.5 306.5C378.209 307.404 379.209 307.737 380.5 307.5C380.5 317.5 380.5 327.5 380.5 337.5C301.833 337.5 223.167 337.5 144.5 337.5C144.5 310.5 144.5 283.5 144.5 256.5C156.838 256.333 169.171 256.5 181.5 257C199.643 269.151 218.143 280.651 237 291.5C239.188 291.646 240.521 290.646 241 288.5C241.5 277.839 241.667 267.172 241.5 256.5C247.509 256.666 253.509 256.499 259.5 256C260.333 255.167 261.167 254.333 262 253.5C262.5 225.502 262.667 197.502 262.5 169.5C297.168 169.333 331.835 169.5 366.5 170C372.974 172.474 377.474 176.974 380 183.5C380.499 189.157 380.666 194.824 380.5 200.5C373.609 201.777 367.275 204.444 361.5 208.5C357.766 204.758 353.766 201.425 349.5 198.5C344.916 201.578 340.749 205.244 337 209.5C336.365 211.635 336.699 213.635 338 215.5C340.682 218.35 343.516 221.016 346.5 223.5C342.162 229.508 339.495 236.175 338.5 243.5C333.489 243.334 328.489 243.501 323.5 244C323 244.5 322.5 245 322 245.5C321.333 251.167 321.333 256.833 322 262.5C322.5 263 323 263.5 323.5 264C328.489 264.499 333.489 264.666 338.5 264.5C339.936 271.307 342.269 277.807 345.5 284C343.385 287.118 340.885 289.952 338 292.5C336.699 294.365 336.365 296.365 337 298.5C340.816 302.999 345.149 306.666 350 309.5C354.553 307.122 358.387 303.788 361.5 299.5C366.367 302.934 371.7 305.268 377.5 306.5Z" fill="#D5FF40"/>
<path fill-rule="evenodd" clip-rule="evenodd" d="M163.5 175.5C174.156 180.633 184.49 186.466 194.5 193C184.387 199.054 174.054 204.554 163.5 209.5C163.5 198.167 163.5 186.833 163.5 175.5Z" fill="#B5D445"/>
<path fill-rule="evenodd" clip-rule="evenodd" d="M349.5 209.5C352.883 212.887 356.55 215.887 360.5 218.5C365.638 215.429 370.971 212.596 376.5 210C377.793 209.51 379.127 209.343 380.5 209.5C380.5 212.5 380.5 215.5 380.5 218.5C359.266 226.626 350.766 241.96 355 264.5C358.873 277.206 367.039 285.873 379.5 290.5C380.48 293.086 380.813 295.753 380.5 298.5C378.436 298.313 376.436 297.813 374.5 297C369.962 294.437 365.462 291.937 361 289.5C356.796 291.691 353.129 294.691 350 298.5C349.167 297.667 348.333 296.833 347.5 296C351.309 292.871 354.309 289.204 356.5 285C351.254 276.94 347.754 268.107 346 258.5C345.5 258 345 257.5 344.5 257C339.845 256.501 335.179 256.334 330.5 256.5C330.5 255.167 330.5 253.833 330.5 252.5C334.846 252.666 339.179 252.499 343.5 252C344 251.5 344.5 251 345 250.5C347.344 240.653 351.177 231.486 356.5 223C354.309 218.796 351.309 215.129 347.5 212C348.381 211.292 349.047 210.458 349.5 209.5Z" fill="#373737"/>
<path fill-rule="evenodd" clip-rule="evenodd" d="M389.5 185.5C390.499 235.997 390.832 286.664 390.5 337.5C396.026 337.179 401.36 337.512 406.5 338.5C400.833 338.5 395.167 338.5 389.5 338.5C389.5 287.5 389.5 236.5 389.5 185.5Z" fill="#797979"/>
<path fill-rule="evenodd" clip-rule="evenodd" d="M380.5 227.5C380.83 245.341 380.497 263.008 379.5 280.5C365.345 272.512 360.179 260.512 364 244.5C367.013 236.322 372.513 230.655 380.5 227.5Z" fill="#353535"/>
<path fill-rule="evenodd" clip-rule="evenodd" d="M380.5 227.5C381.827 245.338 381.827 263.338 380.5 281.5C379.893 281.376 379.56 281.043 379.5 280.5C380.497 263.008 380.83 245.341 380.5 227.5Z" fill="#C2C2C2"/>
<path fill-rule="evenodd" clip-rule="evenodd" d="M281.5 263.5C309.159 264.657 321.659 278.99 319 306.5C311.831 325.838 297.997 334.005 277.5 331C257.807 323.444 249.64 309.277 253 288.5C258.198 275.167 267.698 266.833 281.5 263.5Z" fill="#F7F7F7"/>
<path fill-rule="evenodd" clip-rule="evenodd" d="M279.5 272.5C301.509 271.344 312.009 281.677 311 303.5C305.548 318.926 294.715 325.092 278.5 322C261.699 313.601 257.199 300.767 265 283.5C268.951 278.466 273.784 274.799 279.5 272.5Z" fill="#353535"/>
<path fill-rule="evenodd" clip-rule="evenodd" d="M283.5 282.5C286.044 282.104 288.211 282.771 290 284.5C290.498 287.482 290.665 290.482 290.5 293.5C293.518 293.335 296.518 293.502 299.5 294C302.399 297.156 302.065 299.822 298.5 302C295.854 302.497 293.187 302.664 290.5 302.5C290.665 305.518 290.498 308.518 290 311.5C287.413 314.034 284.747 314.034 282 311.5C281.502 308.518 281.335 305.518 281.5 302.5C278.482 302.665 275.482 302.498 272.5 302C269.966 299.253 269.966 296.587 272.5 294C275.482 293.502 278.482 293.335 281.5 293.5C281.01 289.513 281.676 285.846 283.5 282.5Z" fill="#FAFAFA"/>
<path fill-rule="evenodd" clip-rule="evenodd" d="M154.5 286.5C170.503 286.333 186.503 286.5 202.5 287C205.25 290.012 204.917 292.679 201.5 295C185.833 295.667 170.167 295.667 154.5 295C151.899 292.17 151.899 289.337 154.5 286.5Z" fill="#F7F7F7"/>
<path fill-rule="evenodd" clip-rule="evenodd" d="M377.5 306.5C378.833 306.5 380.167 306.5 381.5 306.5C381.5 317.167 381.5 327.833 381.5 338.5C302.332 338.833 223.332 338.499 144.5 337.5C223.167 337.5 301.833 337.5 380.5 337.5C380.5 327.5 380.5 317.5 380.5 307.5C379.209 307.737 378.209 307.404 377.5 306.5Z" fill="#AEAEAE"/>
<path fill-rule="evenodd" clip-rule="evenodd" d="M154.5 309.5C179.836 309.333 205.169 309.5 230.5 310C234.5 312.667 234.5 315.333 230.5 318C205.167 318.667 179.833 318.667 154.5 318C151.899 315.17 151.899 312.337 154.5 309.5Z" fill="#F9F9F9"/>
<path fill-rule="evenodd" clip-rule="evenodd" d="M384.5 347.5C355.167 347.5 325.833 347.5 296.5 347.5C296.818 352.032 296.485 356.366 295.5 360.5C295.5 355.833 295.5 351.167 295.5 346.5C325.338 346.169 355.005 346.502 384.5 347.5Z" fill="#9C9C9C"/>
<path fill-rule="evenodd" clip-rule="evenodd" d="M295.5 360.5C296.485 356.366 296.818 352.032 296.5 347.5C325.833 347.5 355.167 347.5 384.5 347.5C389.833 347.5 395.167 347.5 400.5 347.5C400.87 353.925 400.37 360.258 399 366.5C396.913 370.302 393.746 372.802 389.5 374C304.833 374.667 220.167 374.667 135.5 374C131.725 372.558 128.892 370.058 127 366.5C125.63 360.258 125.13 353.925 125.5 347.5C160.833 347.5 196.167 347.5 231.5 347.5C231.334 352.511 231.501 357.511 232 362.5C232.833 363.333 233.667 364.167 234.5 365C253.833 365.667 273.167 365.667 292.5 365C294.141 363.871 295.141 362.371 295.5 360.5Z" fill="#363636"/>
<path fill-rule="evenodd" clip-rule="evenodd" d="M240.5 347.5C255.833 347.5 271.167 347.5 286.5 347.5C286.5 350.5 286.5 353.5 286.5 356.5C271.167 356.5 255.833 356.5 240.5 356.5C240.5 353.5 240.5 350.5 240.5 347.5Z" fill="#3A3A3A"/>
<path fill-rule="evenodd" clip-rule="evenodd" d="M334.5 356.5C340.509 356.334 346.509 356.501 352.5 357C355.265 359.966 354.932 362.633 351.5 365C346.167 365.667 340.833 365.667 335.5 365C331.986 362.468 331.653 359.635 334.5 356.5Z" fill="#F4F4F4"/>
<path fill-rule="evenodd" clip-rule="evenodd" d="M360.5 356.5C366.537 356.171 372.537 356.504 378.5 357.5C380.094 360.624 379.428 363.124 376.5 365C371.5 365.667 366.5 365.667 361.5 365C357.986 362.468 357.653 359.635 360.5 356.5Z" fill="#F5F5F5"/>
</g>
<defs>
<clipPath id="clip0_7341_790">
<rect width="512" height="512" fill="white"/>
</clipPath>
</defs>
</svg>
