<svg width="165" height="38" viewBox="0 0 165 38" fill="none" xmlns="http://www.w3.org/2000/svg">
<g filter="url(#filter0_d_5453_1640)">
<path d="M16.304 2.296C18.6293 2.296 20.5707 2.57333 22.128 3.128C23.6853 3.68267 24.9227 4.44 25.84 5.4C26.7787 6.33867 27.44 7.42667 27.824 8.664C28.2293 9.90133 28.432 11.2027 28.432 12.568C28.432 13.9333 28.208 15.2453 27.76 16.504C27.3333 17.7627 26.64 18.8827 25.68 19.864C24.7413 20.824 23.4933 21.592 21.936 22.168C20.4 22.7227 18.5227 23 16.304 23H4.464V2.296H16.304ZM8.72 19.352H16.208C17.744 19.352 19.0133 19.1707 20.016 18.808C21.04 18.424 21.8507 17.912 22.448 17.272C23.0453 16.632 23.472 15.9067 23.728 15.096C23.984 14.2853 24.112 13.4427 24.112 12.568C24.112 11.6933 23.984 10.8613 23.728 10.072C23.472 9.28267 23.0453 8.57867 22.448 7.96C21.8507 7.34133 21.04 6.85067 20.016 6.488C19.0133 6.12533 17.744 5.944 16.208 5.944H8.72V19.352ZM36.813 0.119999V3.768H31.981V0.119999H36.813ZM32.301 7.096H36.461V23H32.301V7.096ZM48.5435 20.568C46.8155 20.568 45.2902 20.312 43.9675 19.8C42.6662 19.2667 41.6528 18.488 40.9275 17.464C40.2022 16.44 39.8395 15.2027 39.8395 13.752C39.8395 12.3227 40.1915 11.0853 40.8955 10.04C41.5995 8.99467 42.6022 8.184 43.9035 7.608C45.2262 7.032 46.7728 6.744 48.5435 6.744C49.0342 6.744 49.5035 6.776 49.9515 6.84C50.4208 6.904 50.8795 6.98933 51.3275 7.096L59.3595 7.128V10.264C58.2715 10.2853 57.1622 10.1573 56.0315 9.88C54.9222 9.58133 53.9408 9.26133 53.0875 8.92L52.9915 8.696C53.7168 9.03733 54.3995 9.464 55.0395 9.976C55.6795 10.4667 56.1915 11.0427 56.5755 11.704C56.9808 12.344 57.1835 13.0907 57.1835 13.944C57.1835 15.3307 56.8315 16.5253 56.1275 17.528C55.4235 18.5093 54.4208 19.2667 53.1195 19.8C51.8395 20.312 50.3142 20.568 48.5435 20.568ZM53.8875 29.56V28.792C53.8875 27.8107 53.5675 27.128 52.9275 26.744C52.3088 26.36 51.4555 26.168 50.3675 26.168H45.4075C44.4475 26.168 43.6368 26.0933 42.9755 25.944C42.3355 25.7947 41.8235 25.5813 41.4395 25.304C41.0555 25.0267 40.7782 24.696 40.6075 24.312C40.4368 23.9493 40.3515 23.5547 40.3515 23.128C40.3515 22.2747 40.6288 21.6347 41.1835 21.208C41.7382 20.76 42.4848 20.4613 43.4235 20.312C44.3622 20.1627 45.3968 20.1307 46.5275 20.216L48.5435 20.568C47.1995 20.6107 46.1968 20.728 45.5355 20.92C44.8955 21.0907 44.5755 21.4427 44.5755 21.976C44.5755 22.296 44.7035 22.552 44.9595 22.744C45.2155 22.9147 45.5782 23 46.0475 23H51.2635C52.6928 23 53.9088 23.1493 54.9115 23.448C55.9355 23.768 56.7142 24.2907 57.2475 25.016C57.7808 25.7627 58.0475 26.776 58.0475 28.056V29.56H53.8875ZM48.5435 17.56C49.4608 17.56 50.2608 17.4107 50.9435 17.112C51.6475 16.8133 52.1915 16.3867 52.5755 15.832C52.9595 15.256 53.1515 14.5733 53.1515 13.784C53.1515 12.9733 52.9595 12.28 52.5755 11.704C52.1915 11.128 51.6582 10.6907 50.9755 10.392C50.2928 10.072 49.4822 9.912 48.5435 9.912C47.6262 9.912 46.8155 10.072 46.1115 10.392C45.4075 10.6907 44.8635 11.128 44.4795 11.704C44.0955 12.28 43.9035 12.9733 43.9035 13.784C43.9035 14.5733 44.0955 15.256 44.4795 15.832C44.8635 16.3867 45.3968 16.8133 46.0795 17.112C46.7835 17.4107 47.6048 17.56 48.5435 17.56ZM66.8443 0.119999V3.768H62.0123V0.119999H66.8443ZM62.3323 7.096H66.4923V23H62.3323V7.096Z" fill="white"/>
<path d="M95.3428 15.544C95.1508 17.208 94.5641 18.6267 93.5828 19.8C92.6014 20.9733 91.2681 21.8693 89.5828 22.488C87.8974 23.1067 85.8921 23.416 83.5668 23.416C81.6254 23.416 79.8441 23.192 78.2228 22.744C76.6228 22.296 75.2361 21.624 74.0628 20.728C72.9108 19.832 72.0148 18.7227 71.3748 17.4C70.7348 16.056 70.4148 14.488 70.4148 12.696C70.4148 10.904 70.7348 9.336 71.3748 7.992C72.0148 6.648 72.9108 5.528 74.0628 4.632C75.2361 3.71467 76.6228 3.032 78.2228 2.584C79.8441 2.11467 81.6254 1.88 83.5668 1.88C85.8921 1.88 87.8974 2.2 89.5828 2.84C91.2894 3.48 92.6334 4.39733 93.6148 5.592C94.5961 6.76533 95.1721 8.19467 95.3428 9.88H91.1188C90.8414 8.984 90.3721 8.216 89.7108 7.576C89.0708 6.91467 88.2388 6.41333 87.2148 6.072C86.1908 5.73067 84.9748 5.56 83.5668 5.56C81.8174 5.56 80.2814 5.83733 78.9588 6.392C77.6361 6.92533 76.6121 7.72533 75.8868 8.792C75.1614 9.83733 74.7988 11.1387 74.7988 12.696C74.7988 14.232 75.1614 15.5227 75.8868 16.568C76.6121 17.6133 77.6361 18.4133 78.9588 18.968C80.2814 19.5013 81.8174 19.768 83.5668 19.768C84.9748 19.768 86.1801 19.5973 87.1828 19.256C88.2068 18.9147 89.0388 18.424 89.6788 17.784C90.3401 17.144 90.8201 16.3973 91.1188 15.544H95.3428ZM98.9513 7.096H103.111V23H98.9513V7.096ZM109.223 10.52C108.029 10.52 106.994 10.7547 106.119 11.224C105.245 11.672 104.541 12.2267 104.007 12.888C103.474 13.5493 103.101 14.1893 102.887 14.808L102.855 13.048C102.877 12.792 102.962 12.4187 103.111 11.928C103.261 11.416 103.485 10.872 103.783 10.296C104.082 9.69867 104.477 9.13333 104.967 8.6C105.458 8.04533 106.055 7.59733 106.759 7.256C107.463 6.91467 108.285 6.744 109.223 6.744V10.52ZM119.539 23.352C117.96 23.352 116.52 23.0107 115.219 22.328C113.939 21.624 112.915 20.6533 112.147 19.416C111.4 18.1573 111.027 16.7067 111.027 15.064C111.027 13.3787 111.411 11.9173 112.179 10.68C112.947 9.44267 113.982 8.48267 115.283 7.8C116.606 7.096 118.099 6.744 119.763 6.744C121.598 6.744 123.07 7.11733 124.179 7.864C125.31 8.58933 126.131 9.58133 126.643 10.84C127.155 12.0987 127.411 13.5067 127.411 15.064C127.411 16.0027 127.262 16.9627 126.963 17.944C126.664 18.904 126.206 19.8 125.587 20.632C124.968 21.4427 124.158 22.104 123.155 22.616C122.152 23.1067 120.947 23.352 119.539 23.352ZM120.883 20.152C122.142 20.152 123.23 19.9387 124.147 19.512C125.064 19.0853 125.768 18.488 126.259 17.72C126.75 16.952 126.995 16.0667 126.995 15.064C126.995 13.976 126.739 13.0587 126.227 12.312C125.736 11.544 125.032 10.968 124.115 10.584C123.219 10.1787 122.142 9.976 120.883 9.976C119.112 9.976 117.736 10.4453 116.755 11.384C115.774 12.3013 115.283 13.528 115.283 15.064C115.283 16.088 115.518 16.984 115.987 17.752C116.456 18.4987 117.107 19.0853 117.939 19.512C118.792 19.9387 119.774 20.152 120.883 20.152ZM126.995 7.096H131.155V23H127.283C127.283 23 127.251 22.7973 127.187 22.392C127.144 21.9653 127.102 21.432 127.059 20.792C127.016 20.152 126.995 19.5227 126.995 18.904V7.096ZM133.8 7.384H146.6V10.552H133.8V7.384ZM143.528 0.695999H146.824V4.056H144.52C143.901 4.03467 143.368 4.09867 142.92 4.248C142.472 4.39733 142.131 4.67467 141.896 5.08C141.661 5.464 141.544 6.01867 141.544 6.744V23H137.384V6.232C137.384 4.952 137.619 3.90667 138.088 3.096C138.557 2.264 139.251 1.656 140.168 1.272C141.085 0.887999 142.205 0.695999 143.528 0.695999ZM148.081 7.096H160.433V10.328H148.081V7.096ZM152.177 2.744H156.337V23H152.177V2.744Z" fill="#D5FF40"/>
</g>
<defs>
<filter id="filter0_d_5453_1640" x="0.463867" y="0.119995" width="163.969" height="37.4401" filterUnits="userSpaceOnUse" color-interpolation-filters="sRGB">
<feFlood flood-opacity="0" result="BackgroundImageFix"/>
<feColorMatrix in="SourceAlpha" type="matrix" values="0 0 0 0 0 0 0 0 0 0 0 0 0 0 0 0 0 0 127 0" result="hardAlpha"/>
<feOffset dy="4"/>
<feGaussianBlur stdDeviation="2"/>
<feComposite in2="hardAlpha" operator="out"/>
<feColorMatrix type="matrix" values="0 0 0 0 0 0 0 0 0 0 0 0 0 0 0 0 0 0 0.25 0"/>
<feBlend mode="normal" in2="BackgroundImageFix" result="effect1_dropShadow_5453_1640"/>
<feBlend mode="normal" in="SourceGraphic" in2="effect1_dropShadow_5453_1640" result="shape"/>
</filter>
</defs>
</svg>
