<svg width="123" height="19" viewBox="0 0 123 19" fill="none" xmlns="http://www.w3.org/2000/svg">
<path d="M0.84 9.36C0.84 8.32 1.024 7.304 1.392 6.312C1.76 5.304 2.296 4.392 3 3.576C3.72 2.744 4.592 2.088 5.616 1.608C6.64 1.112 7.8 0.863999 9.096 0.863999C10.632 0.863999 11.96 1.216 13.08 1.92C14.2 2.608 15.032 3.496 15.576 4.584L13.464 6C13.144 5.312 12.736 4.768 12.24 4.368C11.76 3.968 11.232 3.688 10.656 3.528C10.096 3.368 9.544 3.288 9 3.288C8.104 3.288 7.32 3.472 6.648 3.84C5.976 4.192 5.408 4.664 4.944 5.256C4.496 5.848 4.152 6.512 3.912 7.248C3.688 7.984 3.576 8.72 3.576 9.456C3.576 10.272 3.712 11.064 3.984 11.832C4.256 12.584 4.632 13.256 5.112 13.848C5.608 14.424 6.192 14.88 6.864 15.216C7.536 15.552 8.272 15.72 9.072 15.72C9.616 15.72 10.184 15.624 10.776 15.432C11.368 15.24 11.912 14.944 12.408 14.544C12.92 14.128 13.32 13.584 13.608 12.912L15.84 14.184C15.488 15.032 14.936 15.752 14.184 16.344C13.448 16.936 12.616 17.384 11.688 17.688C10.776 17.992 9.872 18.144 8.976 18.144C7.776 18.144 6.68 17.896 5.688 17.4C4.696 16.888 3.84 16.216 3.12 15.384C2.4 14.536 1.84 13.592 1.44 12.552C1.04 11.496 0.84 10.432 0.84 9.36ZM18.0143 0.48H20.6543V14.376C20.6543 15.016 20.7503 15.424 20.9423 15.6C21.1343 15.776 21.3743 15.864 21.6623 15.864C21.9823 15.864 22.2783 15.832 22.5503 15.768C22.8383 15.704 23.0863 15.624 23.2943 15.528L23.6783 17.616C23.2943 17.776 22.8383 17.912 22.3103 18.024C21.7823 18.136 21.3103 18.192 20.8943 18.192C19.9983 18.192 19.2943 17.944 18.7823 17.448C18.2703 16.936 18.0143 16.232 18.0143 15.336V0.48ZM30.897 18.24C29.921 18.24 29.033 18.072 28.233 17.736C27.449 17.384 26.769 16.912 26.193 16.32C25.617 15.712 25.169 15.024 24.849 14.256C24.545 13.472 24.393 12.64 24.393 11.76C24.393 10.576 24.665 9.496 25.209 8.52C25.753 7.528 26.513 6.736 27.489 6.144C28.465 5.536 29.609 5.232 30.921 5.232C32.233 5.232 33.361 5.536 34.305 6.144C35.265 6.736 36.009 7.52 36.537 8.496C37.065 9.472 37.329 10.52 37.329 11.64C37.329 11.832 37.321 12.016 37.305 12.192C37.289 12.352 37.273 12.488 37.257 12.6H27.201C27.249 13.336 27.449 13.984 27.801 14.544C28.169 15.088 28.633 15.52 29.193 15.84C29.753 16.144 30.353 16.296 30.993 16.296C31.697 16.296 32.361 16.12 32.985 15.768C33.625 15.416 34.057 14.952 34.281 14.376L36.537 15.024C36.265 15.632 35.849 16.184 35.289 16.68C34.745 17.16 34.097 17.544 33.345 17.832C32.593 18.104 31.777 18.24 30.897 18.24ZM27.129 10.848H34.713C34.665 10.128 34.457 9.496 34.089 8.952C33.737 8.392 33.281 7.96 32.721 7.656C32.177 7.336 31.569 7.176 30.897 7.176C30.241 7.176 29.633 7.336 29.073 7.656C28.529 7.96 28.081 8.392 27.729 8.952C27.377 9.496 27.177 10.128 27.129 10.848ZM38.5704 14.328C38.5704 13.528 38.7944 12.832 39.2424 12.24C39.7064 11.632 40.3384 11.168 41.1384 10.848C41.9384 10.512 42.8664 10.344 43.9224 10.344C44.4824 10.344 45.0504 10.384 45.6264 10.464C46.2184 10.544 46.7384 10.672 47.1864 10.848V10.056C47.1864 9.176 46.9224 8.488 46.3944 7.992C45.8664 7.496 45.1064 7.248 44.1144 7.248C43.4104 7.248 42.7464 7.376 42.1224 7.632C41.4984 7.872 40.8344 8.216 40.1304 8.664L39.2424 6.888C40.0744 6.328 40.9064 5.912 41.7384 5.64C42.5864 5.368 43.4744 5.232 44.4024 5.232C46.0824 5.232 47.4024 5.68 48.3624 6.576C49.3384 7.456 49.8264 8.712 49.8264 10.344V15.024C49.8264 15.328 49.8744 15.544 49.9704 15.672C50.0824 15.8 50.2664 15.872 50.5224 15.888V18C50.2824 18.048 50.0664 18.08 49.8744 18.096C49.6824 18.112 49.5224 18.12 49.3944 18.12C48.8344 18.12 48.4104 17.984 48.1224 17.712C47.8344 17.44 47.6664 17.12 47.6184 16.752L47.5464 16.032C47.0024 16.736 46.3064 17.28 45.4584 17.664C44.6104 18.048 43.7544 18.24 42.8904 18.24C42.0584 18.24 41.3144 18.072 40.6584 17.736C40.0024 17.384 39.4904 16.912 39.1224 16.32C38.7544 15.728 38.5704 15.064 38.5704 14.328ZM46.5624 15.096C46.7544 14.888 46.9064 14.68 47.0184 14.472C47.1304 14.264 47.1864 14.08 47.1864 13.92V12.48C46.7384 12.304 46.2664 12.176 45.7704 12.096C45.2744 12 44.7864 11.952 44.3064 11.952C43.3464 11.952 42.5624 12.144 41.9544 12.528C41.3624 12.912 41.0664 13.44 41.0664 14.112C41.0664 14.48 41.1624 14.832 41.3544 15.168C41.5624 15.504 41.8504 15.776 42.2184 15.984C42.6024 16.192 43.0744 16.296 43.6344 16.296C44.2104 16.296 44.7624 16.184 45.2904 15.96C45.8184 15.736 46.2424 15.448 46.5624 15.096ZM64.2853 18H61.6453V10.968C61.6453 9.8 61.4533 8.944 61.0693 8.4C60.7013 7.856 60.1493 7.584 59.4133 7.584C58.9013 7.584 58.3893 7.712 57.8773 7.968C57.3813 8.224 56.9333 8.576 56.5333 9.024C56.1333 9.456 55.8453 9.96 55.6693 10.536V18H53.0293V5.448H55.4293V7.968C55.7493 7.408 56.1653 6.928 56.6773 6.528C57.2053 6.112 57.7973 5.792 58.4533 5.568C59.1093 5.344 59.8053 5.232 60.5413 5.232C61.2933 5.232 61.9093 5.368 62.3893 5.64C62.8853 5.912 63.2693 6.288 63.5413 6.768C63.8293 7.232 64.0213 7.776 64.1173 8.4C64.2293 9.008 64.2853 9.656 64.2853 10.344V18Z" fill="#16A34A"/>
<path d="M77.7422 4.968C77.5822 4.792 77.3502 4.608 77.0462 4.416C76.7422 4.208 76.3822 4.016 75.9662 3.84C75.5502 3.664 75.1022 3.52 74.6222 3.408C74.1422 3.296 73.6462 3.24 73.1342 3.24C72.0142 3.24 71.1822 3.448 70.6382 3.864C70.0942 4.28 69.8222 4.856 69.8222 5.592C69.8222 6.136 69.9742 6.568 70.2782 6.888C70.5822 7.192 71.0462 7.448 71.6702 7.656C72.2942 7.864 73.0782 8.088 74.0222 8.328C75.1742 8.6 76.1742 8.928 77.0222 9.312C77.8702 9.68 78.5182 10.176 78.9662 10.8C79.4142 11.424 79.6382 12.248 79.6382 13.272C79.6382 14.136 79.4782 14.88 79.1582 15.504C78.8382 16.128 78.3902 16.64 77.8142 17.04C77.2382 17.424 76.5742 17.712 75.8222 17.904C75.0702 18.08 74.2622 18.168 73.3982 18.168C72.5502 18.168 71.7022 18.08 70.8542 17.904C70.0222 17.728 69.2222 17.472 68.4542 17.136C67.7022 16.784 67.0062 16.36 66.3662 15.864L67.5902 13.56C67.7982 13.768 68.0942 14 68.4782 14.256C68.8782 14.496 69.3342 14.728 69.8462 14.952C70.3742 15.176 70.9422 15.368 71.5502 15.528C72.1742 15.672 72.8062 15.744 73.4462 15.744C74.5182 15.744 75.3342 15.56 75.8942 15.192C76.4702 14.808 76.7582 14.264 76.7582 13.56C76.7582 12.984 76.5742 12.528 76.2062 12.192C75.8382 11.84 75.3022 11.544 74.5982 11.304C73.8942 11.064 73.0542 10.824 72.0782 10.584C70.9582 10.28 70.0222 9.952 69.2702 9.6C68.5182 9.232 67.9502 8.768 67.5662 8.208C67.1982 7.632 67.0142 6.904 67.0142 6.024C67.0142 4.904 67.2862 3.96 67.8302 3.192C68.3742 2.408 69.1102 1.824 70.0382 1.44C70.9822 1.04 72.0382 0.839999 73.2062 0.839999C73.9742 0.839999 74.7022 0.927999 75.3902 1.104C76.0782 1.264 76.7182 1.488 77.3102 1.776C77.9182 2.064 78.4702 2.392 78.9662 2.76L77.7422 4.968ZM97.2711 5.448H99.7911L94.5111 18H92.2551L89.9991 12.336L87.7431 18H85.4871L80.1831 5.448H82.7031L86.7351 15.432L88.5111 10.8L86.3511 5.472H88.5831L89.9991 9.384L91.3911 5.472H93.6231L91.4871 10.8L93.2631 15.432L97.2711 5.448ZM101.545 18V5.448H104.185V18H101.545ZM101.545 3.384V0.48H104.185V3.384H101.545ZM108.077 18V7.8H106.397V5.76H108.077V5.256C108.077 4.232 108.237 3.344 108.557 2.592C108.893 1.84 109.357 1.264 109.949 0.863999C110.557 0.447999 111.269 0.24 112.085 0.24C112.597 0.24 113.101 0.312 113.597 0.456C114.093 0.583999 114.565 0.767999 115.013 1.008L114.437 2.976C114.197 2.816 113.909 2.696 113.573 2.616C113.253 2.52 112.941 2.472 112.637 2.472C112.029 2.472 111.557 2.704 111.221 3.168C110.885 3.632 110.717 4.304 110.717 5.184V5.76H113.933V7.8H110.717V18H108.077ZM122.896 17.352C122.672 17.464 122.392 17.584 122.056 17.712C121.72 17.84 121.336 17.952 120.904 18.048C120.488 18.144 120.056 18.192 119.608 18.192C119.064 18.192 118.56 18.096 118.096 17.904C117.632 17.712 117.256 17.408 116.968 16.992C116.696 16.56 116.56 16.008 116.56 15.336V7.488H114.904V5.448H116.56V1.32H119.2V5.448H121.936V7.488H119.2V14.496C119.232 14.928 119.368 15.248 119.608 15.456C119.864 15.664 120.176 15.768 120.544 15.768C120.912 15.768 121.264 15.704 121.6 15.576C121.936 15.448 122.184 15.344 122.344 15.264L122.896 17.352Z" fill="#EAB308"/>
</svg>
